<mxfile host="app.diagrams.net" agent="Mozilla/5.0 (Windows NT 10.0; Win64; x64) AppleWebKit/537.36 (KHTML, like Gecko) Chrome/127.0.0.0 Safari/537.36 Edg/127.0.0.0" version="24.7.7">
  <diagram name="PÃ¡gina-1" id="QoQRSrEe4lh9-zRrztk3">
    <mxGraphModel dx="2253" dy="791" grid="1" gridSize="10" guides="1" tooltips="1" connect="1" arrows="1" fold="1" page="1" pageScale="1" pageWidth="827" pageHeight="1169" math="0" shadow="0">
      <root>
        <mxCell id="0" />
        <mxCell id="1" parent="0" />
        <mxCell id="lGramcExVLC0_UKyJ60Z-5" style="edgeStyle=orthogonalEdgeStyle;rounded=0;orthogonalLoop=1;jettySize=auto;html=1;exitX=0.5;exitY=0;exitDx=0;exitDy=0;entryX=0;entryY=0.5;entryDx=0;entryDy=0;fontSize=16;" edge="1" parent="1" source="lGramcExVLC0_UKyJ60Z-1" target="lGramcExVLC0_UKyJ60Z-3">
          <mxGeometry relative="1" as="geometry" />
        </mxCell>
        <mxCell id="lGramcExVLC0_UKyJ60Z-6" value="B" style="edgeLabel;html=1;align=center;verticalAlign=middle;resizable=0;points=[];fontSize=16;" vertex="1" connectable="0" parent="lGramcExVLC0_UKyJ60Z-5">
          <mxGeometry x="0.0909" y="-3" relative="1" as="geometry">
            <mxPoint x="-5" y="-3" as="offset" />
          </mxGeometry>
        </mxCell>
        <mxCell id="lGramcExVLC0_UKyJ60Z-7" style="edgeStyle=orthogonalEdgeStyle;rounded=0;orthogonalLoop=1;jettySize=auto;html=1;exitX=0.5;exitY=1;exitDx=0;exitDy=0;entryX=0;entryY=0.5;entryDx=0;entryDy=0;fontSize=16;" edge="1" parent="1" source="lGramcExVLC0_UKyJ60Z-1" target="lGramcExVLC0_UKyJ60Z-4">
          <mxGeometry relative="1" as="geometry" />
        </mxCell>
        <mxCell id="lGramcExVLC0_UKyJ60Z-22" value="C" style="edgeLabel;html=1;align=center;verticalAlign=middle;resizable=0;points=[];fontSize=16;" vertex="1" connectable="0" parent="lGramcExVLC0_UKyJ60Z-7">
          <mxGeometry x="-0.0545" y="-1" relative="1" as="geometry">
            <mxPoint x="1" y="3" as="offset" />
          </mxGeometry>
        </mxCell>
        <mxCell id="lGramcExVLC0_UKyJ60Z-1" value="Q0" style="ellipse;whiteSpace=wrap;html=1;aspect=fixed;fontSize=16;" vertex="1" parent="1">
          <mxGeometry x="40" y="140" width="50" height="50" as="geometry" />
        </mxCell>
        <mxCell id="lGramcExVLC0_UKyJ60Z-11" style="edgeStyle=orthogonalEdgeStyle;rounded=0;orthogonalLoop=1;jettySize=auto;html=1;exitX=1;exitY=0.5;exitDx=0;exitDy=0;entryX=0;entryY=0.5;entryDx=0;entryDy=0;fontSize=16;" edge="1" parent="1" source="lGramcExVLC0_UKyJ60Z-3" target="lGramcExVLC0_UKyJ60Z-9">
          <mxGeometry relative="1" as="geometry" />
        </mxCell>
        <mxCell id="lGramcExVLC0_UKyJ60Z-19" value="A" style="edgeLabel;html=1;align=center;verticalAlign=middle;resizable=0;points=[];fontSize=16;" vertex="1" connectable="0" parent="lGramcExVLC0_UKyJ60Z-11">
          <mxGeometry x="-0.1143" y="3" relative="1" as="geometry">
            <mxPoint as="offset" />
          </mxGeometry>
        </mxCell>
        <mxCell id="lGramcExVLC0_UKyJ60Z-3" value="&lt;font style=&quot;font-size: 16px;&quot;&gt;Q1&lt;/font&gt;" style="ellipse;whiteSpace=wrap;html=1;aspect=fixed;fontSize=16;" vertex="1" parent="1">
          <mxGeometry x="120" y="60" width="50" height="50" as="geometry" />
        </mxCell>
        <mxCell id="lGramcExVLC0_UKyJ60Z-16" style="edgeStyle=orthogonalEdgeStyle;rounded=0;orthogonalLoop=1;jettySize=auto;html=1;exitX=1;exitY=0.5;exitDx=0;exitDy=0;entryX=0;entryY=0.5;entryDx=0;entryDy=0;fontSize=16;" edge="1" parent="1" source="lGramcExVLC0_UKyJ60Z-4" target="lGramcExVLC0_UKyJ60Z-14">
          <mxGeometry relative="1" as="geometry" />
        </mxCell>
        <mxCell id="lGramcExVLC0_UKyJ60Z-17" value="D" style="edgeLabel;html=1;align=center;verticalAlign=middle;resizable=0;points=[];fontSize=16;" vertex="1" connectable="0" parent="lGramcExVLC0_UKyJ60Z-16">
          <mxGeometry x="-0.2571" y="-3" relative="1" as="geometry">
            <mxPoint as="offset" />
          </mxGeometry>
        </mxCell>
        <mxCell id="lGramcExVLC0_UKyJ60Z-4" value="Q3" style="ellipse;whiteSpace=wrap;html=1;aspect=fixed;fontSize=16;" vertex="1" parent="1">
          <mxGeometry x="120" y="220" width="50" height="50" as="geometry" />
        </mxCell>
        <mxCell id="lGramcExVLC0_UKyJ60Z-12" style="edgeStyle=orthogonalEdgeStyle;rounded=0;orthogonalLoop=1;jettySize=auto;html=1;exitX=1;exitY=0.5;exitDx=0;exitDy=0;entryX=0;entryY=0.5;entryDx=0;entryDy=0;fontSize=16;" edge="1" parent="1" source="lGramcExVLC0_UKyJ60Z-9" target="lGramcExVLC0_UKyJ60Z-10">
          <mxGeometry relative="1" as="geometry" />
        </mxCell>
        <mxCell id="lGramcExVLC0_UKyJ60Z-20" value="B" style="edgeLabel;html=1;align=center;verticalAlign=middle;resizable=0;points=[];fontSize=16;" vertex="1" connectable="0" parent="lGramcExVLC0_UKyJ60Z-12">
          <mxGeometry x="-0.027" y="-1" relative="1" as="geometry">
            <mxPoint as="offset" />
          </mxGeometry>
        </mxCell>
        <mxCell id="lGramcExVLC0_UKyJ60Z-9" value="&lt;font style=&quot;font-size: 16px;&quot;&gt;Q2&lt;/font&gt;" style="ellipse;whiteSpace=wrap;html=1;aspect=fixed;fontSize=16;" vertex="1" parent="1">
          <mxGeometry x="240" y="60" width="50" height="50" as="geometry" />
        </mxCell>
        <mxCell id="lGramcExVLC0_UKyJ60Z-10" value="&lt;font style=&quot;font-size: 16px;&quot;&gt;Q6&lt;/font&gt;" style="ellipse;whiteSpace=wrap;html=1;aspect=fixed;fontSize=16;" vertex="1" parent="1">
          <mxGeometry x="364" y="60" width="50" height="50" as="geometry" />
        </mxCell>
        <mxCell id="lGramcExVLC0_UKyJ60Z-13" style="edgeStyle=orthogonalEdgeStyle;rounded=0;orthogonalLoop=1;jettySize=auto;html=1;exitX=1;exitY=0.5;exitDx=0;exitDy=0;entryX=0;entryY=0.5;entryDx=0;entryDy=0;fontSize=16;" edge="1" parent="1" source="lGramcExVLC0_UKyJ60Z-14">
          <mxGeometry relative="1" as="geometry">
            <mxPoint x="364" y="245" as="targetPoint" />
          </mxGeometry>
        </mxCell>
        <mxCell id="lGramcExVLC0_UKyJ60Z-18" value="B" style="edgeLabel;html=1;align=center;verticalAlign=middle;resizable=0;points=[];fontSize=16;" vertex="1" connectable="0" parent="lGramcExVLC0_UKyJ60Z-13">
          <mxGeometry x="-0.0873" y="-1" relative="1" as="geometry">
            <mxPoint as="offset" />
          </mxGeometry>
        </mxCell>
        <mxCell id="lGramcExVLC0_UKyJ60Z-14" value="&lt;font style=&quot;font-size: 16px;&quot;&gt;Q4&lt;/font&gt;" style="ellipse;whiteSpace=wrap;html=1;aspect=fixed;fontSize=16;" vertex="1" parent="1">
          <mxGeometry x="240" y="220" width="50" height="50" as="geometry" />
        </mxCell>
        <mxCell id="lGramcExVLC0_UKyJ60Z-15" value="&lt;font style=&quot;font-size: 16px;&quot;&gt;Q6&lt;/font&gt;" style="ellipse;whiteSpace=wrap;html=1;aspect=fixed;fontSize=16;" vertex="1" parent="1">
          <mxGeometry x="364" y="220" width="50" height="50" as="geometry" />
        </mxCell>
        <mxCell id="lGramcExVLC0_UKyJ60Z-23" value="" style="endArrow=classic;html=1;rounded=0;" edge="1" parent="1">
          <mxGeometry width="50" height="50" relative="1" as="geometry">
            <mxPoint y="165" as="sourcePoint" />
            <mxPoint x="40" y="164.5" as="targetPoint" />
          </mxGeometry>
        </mxCell>
        <mxCell id="lGramcExVLC0_UKyJ60Z-24" style="edgeStyle=orthogonalEdgeStyle;rounded=0;orthogonalLoop=1;jettySize=auto;html=1;entryX=0;entryY=0.5;entryDx=0;entryDy=0;fontSize=16;" edge="1" parent="1" target="lGramcExVLC0_UKyJ60Z-31">
          <mxGeometry relative="1" as="geometry">
            <mxPoint x="120" y="680" as="sourcePoint" />
            <Array as="points">
              <mxPoint x="120" y="595" />
            </Array>
          </mxGeometry>
        </mxCell>
        <mxCell id="lGramcExVLC0_UKyJ60Z-25" value="B" style="edgeLabel;html=1;align=center;verticalAlign=middle;resizable=0;points=[];fontSize=16;" vertex="1" connectable="0" parent="lGramcExVLC0_UKyJ60Z-24">
          <mxGeometry x="0.0909" y="-3" relative="1" as="geometry">
            <mxPoint x="-3" y="-22" as="offset" />
          </mxGeometry>
        </mxCell>
        <mxCell id="lGramcExVLC0_UKyJ60Z-26" style="edgeStyle=orthogonalEdgeStyle;rounded=0;orthogonalLoop=1;jettySize=auto;html=1;exitX=1;exitY=0.5;exitDx=0;exitDy=0;entryX=0;entryY=0.5;entryDx=0;entryDy=0;fontSize=16;" edge="1" parent="1" source="lGramcExVLC0_UKyJ60Z-28" target="lGramcExVLC0_UKyJ60Z-34">
          <mxGeometry relative="1" as="geometry">
            <Array as="points">
              <mxPoint x="90" y="680" />
              <mxPoint x="120" y="680" />
            </Array>
          </mxGeometry>
        </mxCell>
        <mxCell id="lGramcExVLC0_UKyJ60Z-27" value="D" style="edgeLabel;html=1;align=center;verticalAlign=middle;resizable=0;points=[];fontSize=16;" vertex="1" connectable="0" parent="lGramcExVLC0_UKyJ60Z-26">
          <mxGeometry x="-0.0545" y="-1" relative="1" as="geometry">
            <mxPoint x="1" y="44" as="offset" />
          </mxGeometry>
        </mxCell>
        <mxCell id="lGramcExVLC0_UKyJ60Z-54" style="edgeStyle=orthogonalEdgeStyle;rounded=0;orthogonalLoop=1;jettySize=auto;html=1;exitX=0.5;exitY=1;exitDx=0;exitDy=0;entryX=0;entryY=0.5;entryDx=0;entryDy=0;fontSize=16;" edge="1" parent="1" source="lGramcExVLC0_UKyJ60Z-28" target="lGramcExVLC0_UKyJ60Z-53">
          <mxGeometry relative="1" as="geometry" />
        </mxCell>
        <mxCell id="lGramcExVLC0_UKyJ60Z-59" value="C" style="edgeLabel;html=1;align=center;verticalAlign=middle;resizable=0;points=[];fontSize=16;" vertex="1" connectable="0" parent="lGramcExVLC0_UKyJ60Z-54">
          <mxGeometry x="0.7641" y="-1" relative="1" as="geometry">
            <mxPoint x="-2" y="-1" as="offset" />
          </mxGeometry>
        </mxCell>
        <mxCell id="lGramcExVLC0_UKyJ60Z-28" value="Q5" style="ellipse;whiteSpace=wrap;html=1;aspect=fixed;fontSize=16;" vertex="1" parent="1">
          <mxGeometry x="40" y="650" width="50" height="50" as="geometry" />
        </mxCell>
        <mxCell id="lGramcExVLC0_UKyJ60Z-29" style="edgeStyle=orthogonalEdgeStyle;rounded=0;orthogonalLoop=1;jettySize=auto;html=1;exitX=1;exitY=0.5;exitDx=0;exitDy=0;entryX=0;entryY=0.5;entryDx=0;entryDy=0;fontSize=16;" edge="1" parent="1" source="lGramcExVLC0_UKyJ60Z-31" target="lGramcExVLC0_UKyJ60Z-37">
          <mxGeometry relative="1" as="geometry" />
        </mxCell>
        <mxCell id="lGramcExVLC0_UKyJ60Z-30" value="A" style="edgeLabel;html=1;align=center;verticalAlign=middle;resizable=0;points=[];fontSize=16;" vertex="1" connectable="0" parent="lGramcExVLC0_UKyJ60Z-29">
          <mxGeometry x="-0.1143" y="3" relative="1" as="geometry">
            <mxPoint as="offset" />
          </mxGeometry>
        </mxCell>
        <mxCell id="lGramcExVLC0_UKyJ60Z-63" style="edgeStyle=orthogonalEdgeStyle;rounded=0;orthogonalLoop=1;jettySize=auto;html=1;exitX=0.5;exitY=0;exitDx=0;exitDy=0;entryX=0;entryY=0.5;entryDx=0;entryDy=0;fontSize=16;" edge="1" parent="1" source="lGramcExVLC0_UKyJ60Z-31" target="lGramcExVLC0_UKyJ60Z-61">
          <mxGeometry relative="1" as="geometry" />
        </mxCell>
        <mxCell id="lGramcExVLC0_UKyJ60Z-64" style="edgeStyle=orthogonalEdgeStyle;rounded=0;orthogonalLoop=1;jettySize=auto;html=1;exitX=0.5;exitY=0;exitDx=0;exitDy=0;entryX=0;entryY=0.5;entryDx=0;entryDy=0;fontSize=16;" edge="1" parent="1" source="lGramcExVLC0_UKyJ60Z-31" target="lGramcExVLC0_UKyJ60Z-60">
          <mxGeometry relative="1" as="geometry" />
        </mxCell>
        <mxCell id="lGramcExVLC0_UKyJ60Z-65" style="edgeStyle=orthogonalEdgeStyle;rounded=0;orthogonalLoop=1;jettySize=auto;html=1;exitX=0.5;exitY=0;exitDx=0;exitDy=0;entryX=0;entryY=0.5;entryDx=0;entryDy=0;fontSize=16;" edge="1" parent="1" source="lGramcExVLC0_UKyJ60Z-31" target="lGramcExVLC0_UKyJ60Z-62">
          <mxGeometry relative="1" as="geometry" />
        </mxCell>
        <mxCell id="lGramcExVLC0_UKyJ60Z-66" value="B" style="edgeLabel;html=1;align=center;verticalAlign=middle;resizable=0;points=[];fontSize=16;" vertex="1" connectable="0" parent="lGramcExVLC0_UKyJ60Z-65">
          <mxGeometry x="-0.4769" relative="1" as="geometry">
            <mxPoint as="offset" />
          </mxGeometry>
        </mxCell>
        <mxCell id="lGramcExVLC0_UKyJ60Z-67" value="C" style="edgeLabel;html=1;align=center;verticalAlign=middle;resizable=0;points=[];fontSize=16;" vertex="1" connectable="0" parent="lGramcExVLC0_UKyJ60Z-65">
          <mxGeometry x="0.1077" y="1" relative="1" as="geometry">
            <mxPoint y="-2" as="offset" />
          </mxGeometry>
        </mxCell>
        <mxCell id="lGramcExVLC0_UKyJ60Z-68" value="D" style="edgeLabel;html=1;align=center;verticalAlign=middle;resizable=0;points=[];fontSize=16;" vertex="1" connectable="0" parent="lGramcExVLC0_UKyJ60Z-65">
          <mxGeometry x="0.7436" y="3" relative="1" as="geometry">
            <mxPoint y="3" as="offset" />
          </mxGeometry>
        </mxCell>
        <mxCell id="lGramcExVLC0_UKyJ60Z-31" value="&lt;font style=&quot;font-size: 16px;&quot;&gt;Q6&lt;/font&gt;" style="ellipse;whiteSpace=wrap;html=1;aspect=fixed;fontSize=16;" vertex="1" parent="1">
          <mxGeometry x="150" y="570" width="50" height="50" as="geometry" />
        </mxCell>
        <mxCell id="lGramcExVLC0_UKyJ60Z-32" style="edgeStyle=orthogonalEdgeStyle;rounded=0;orthogonalLoop=1;jettySize=auto;html=1;exitX=1;exitY=0.5;exitDx=0;exitDy=0;entryX=0;entryY=0.5;entryDx=0;entryDy=0;fontSize=16;" edge="1" parent="1" source="lGramcExVLC0_UKyJ60Z-34" target="lGramcExVLC0_UKyJ60Z-41">
          <mxGeometry relative="1" as="geometry" />
        </mxCell>
        <mxCell id="lGramcExVLC0_UKyJ60Z-47" value="B" style="edgeLabel;html=1;align=center;verticalAlign=middle;resizable=0;points=[];fontSize=16;" vertex="1" connectable="0" parent="lGramcExVLC0_UKyJ60Z-32">
          <mxGeometry x="-0.2286" y="2" relative="1" as="geometry">
            <mxPoint x="10" y="2" as="offset" />
          </mxGeometry>
        </mxCell>
        <mxCell id="lGramcExVLC0_UKyJ60Z-75" style="edgeStyle=orthogonalEdgeStyle;rounded=0;orthogonalLoop=1;jettySize=auto;html=1;exitX=0.5;exitY=1;exitDx=0;exitDy=0;entryX=0;entryY=0.5;entryDx=0;entryDy=0;fontSize=16;" edge="1" parent="1" source="lGramcExVLC0_UKyJ60Z-34" target="lGramcExVLC0_UKyJ60Z-74">
          <mxGeometry relative="1" as="geometry" />
        </mxCell>
        <mxCell id="lGramcExVLC0_UKyJ60Z-76" style="edgeStyle=orthogonalEdgeStyle;rounded=0;orthogonalLoop=1;jettySize=auto;html=1;exitX=0.5;exitY=1;exitDx=0;exitDy=0;entryX=0;entryY=0.5;entryDx=0;entryDy=0;fontSize=16;" edge="1" parent="1" source="lGramcExVLC0_UKyJ60Z-34" target="lGramcExVLC0_UKyJ60Z-72">
          <mxGeometry relative="1" as="geometry" />
        </mxCell>
        <mxCell id="lGramcExVLC0_UKyJ60Z-77" style="edgeStyle=orthogonalEdgeStyle;rounded=0;orthogonalLoop=1;jettySize=auto;html=1;exitX=0.5;exitY=1;exitDx=0;exitDy=0;entryX=0;entryY=0.5;entryDx=0;entryDy=0;fontSize=16;" edge="1" parent="1" source="lGramcExVLC0_UKyJ60Z-34" target="lGramcExVLC0_UKyJ60Z-73">
          <mxGeometry relative="1" as="geometry" />
        </mxCell>
        <mxCell id="lGramcExVLC0_UKyJ60Z-78" value="D" style="edgeLabel;html=1;align=center;verticalAlign=middle;resizable=0;points=[];fontSize=16;" vertex="1" connectable="0" parent="lGramcExVLC0_UKyJ60Z-77">
          <mxGeometry x="-0.5676" relative="1" as="geometry">
            <mxPoint as="offset" />
          </mxGeometry>
        </mxCell>
        <mxCell id="lGramcExVLC0_UKyJ60Z-79" value="A" style="edgeLabel;html=1;align=center;verticalAlign=middle;resizable=0;points=[];fontSize=16;" vertex="1" connectable="0" parent="lGramcExVLC0_UKyJ60Z-77">
          <mxGeometry x="0.0811" y="1" relative="1" as="geometry">
            <mxPoint as="offset" />
          </mxGeometry>
        </mxCell>
        <mxCell id="lGramcExVLC0_UKyJ60Z-80" value="C" style="edgeLabel;html=1;align=center;verticalAlign=middle;resizable=0;points=[];fontSize=16;" vertex="1" connectable="0" parent="lGramcExVLC0_UKyJ60Z-77">
          <mxGeometry x="0.7189" relative="1" as="geometry">
            <mxPoint as="offset" />
          </mxGeometry>
        </mxCell>
        <mxCell id="lGramcExVLC0_UKyJ60Z-34" value="Q8" style="ellipse;whiteSpace=wrap;html=1;aspect=fixed;fontSize=16;" vertex="1" parent="1">
          <mxGeometry x="150" y="730" width="50" height="50" as="geometry" />
        </mxCell>
        <mxCell id="lGramcExVLC0_UKyJ60Z-35" style="edgeStyle=orthogonalEdgeStyle;rounded=0;orthogonalLoop=1;jettySize=auto;html=1;exitX=1;exitY=0.5;exitDx=0;exitDy=0;entryX=0;entryY=0.5;entryDx=0;entryDy=0;fontSize=16;" edge="1" parent="1" source="lGramcExVLC0_UKyJ60Z-37" target="lGramcExVLC0_UKyJ60Z-38">
          <mxGeometry relative="1" as="geometry" />
        </mxCell>
        <mxCell id="lGramcExVLC0_UKyJ60Z-44" value="C" style="edgeLabel;html=1;align=center;verticalAlign=middle;resizable=0;points=[];fontSize=16;" vertex="1" connectable="0" parent="lGramcExVLC0_UKyJ60Z-35">
          <mxGeometry x="0.1081" y="1" relative="1" as="geometry">
            <mxPoint y="1" as="offset" />
          </mxGeometry>
        </mxCell>
        <mxCell id="lGramcExVLC0_UKyJ60Z-96" style="edgeStyle=orthogonalEdgeStyle;rounded=0;orthogonalLoop=1;jettySize=auto;html=1;exitX=0.5;exitY=0;exitDx=0;exitDy=0;entryX=0;entryY=0.5;entryDx=0;entryDy=0;fontSize=16;" edge="1" parent="1" source="lGramcExVLC0_UKyJ60Z-37" target="lGramcExVLC0_UKyJ60Z-85">
          <mxGeometry relative="1" as="geometry" />
        </mxCell>
        <mxCell id="lGramcExVLC0_UKyJ60Z-97" style="edgeStyle=orthogonalEdgeStyle;rounded=0;orthogonalLoop=1;jettySize=auto;html=1;exitX=0.5;exitY=0;exitDx=0;exitDy=0;entryX=0;entryY=0.5;entryDx=0;entryDy=0;fontSize=16;" edge="1" parent="1" source="lGramcExVLC0_UKyJ60Z-37" target="lGramcExVLC0_UKyJ60Z-84">
          <mxGeometry relative="1" as="geometry" />
        </mxCell>
        <mxCell id="lGramcExVLC0_UKyJ60Z-98" style="edgeStyle=orthogonalEdgeStyle;rounded=0;orthogonalLoop=1;jettySize=auto;html=1;exitX=0.5;exitY=0;exitDx=0;exitDy=0;entryX=0;entryY=0.5;entryDx=0;entryDy=0;fontSize=16;" edge="1" parent="1" source="lGramcExVLC0_UKyJ60Z-37" target="lGramcExVLC0_UKyJ60Z-86">
          <mxGeometry relative="1" as="geometry" />
        </mxCell>
        <mxCell id="lGramcExVLC0_UKyJ60Z-99" value="A" style="edgeLabel;html=1;align=center;verticalAlign=middle;resizable=0;points=[];fontSize=16;" vertex="1" connectable="0" parent="lGramcExVLC0_UKyJ60Z-98">
          <mxGeometry x="-0.4564" relative="1" as="geometry">
            <mxPoint as="offset" />
          </mxGeometry>
        </mxCell>
        <mxCell id="lGramcExVLC0_UKyJ60Z-100" value="B" style="edgeLabel;html=1;align=center;verticalAlign=middle;resizable=0;points=[];fontSize=16;" vertex="1" connectable="0" parent="lGramcExVLC0_UKyJ60Z-98">
          <mxGeometry x="0.1487" relative="1" as="geometry">
            <mxPoint as="offset" />
          </mxGeometry>
        </mxCell>
        <mxCell id="lGramcExVLC0_UKyJ60Z-101" value="D" style="edgeLabel;html=1;align=center;verticalAlign=middle;resizable=0;points=[];fontSize=16;" vertex="1" connectable="0" parent="lGramcExVLC0_UKyJ60Z-98">
          <mxGeometry x="0.7641" y="1" relative="1" as="geometry">
            <mxPoint as="offset" />
          </mxGeometry>
        </mxCell>
        <mxCell id="lGramcExVLC0_UKyJ60Z-37" value="&lt;font style=&quot;font-size: 16px;&quot;&gt;Q7&lt;/font&gt;" style="ellipse;whiteSpace=wrap;html=1;aspect=fixed;fontSize=16;" vertex="1" parent="1">
          <mxGeometry x="300" y="570" width="50" height="50" as="geometry" />
        </mxCell>
        <mxCell id="lGramcExVLC0_UKyJ60Z-38" value="&lt;font style=&quot;font-size: 16px;&quot;&gt;Q11&lt;/font&gt;" style="ellipse;whiteSpace=wrap;html=1;aspect=fixed;fontSize=16;" vertex="1" parent="1">
          <mxGeometry x="440" y="570" width="50" height="50" as="geometry" />
        </mxCell>
        <mxCell id="lGramcExVLC0_UKyJ60Z-50" style="edgeStyle=orthogonalEdgeStyle;rounded=0;orthogonalLoop=1;jettySize=auto;html=1;exitX=1;exitY=0.5;exitDx=0;exitDy=0;entryX=0;entryY=0.5;entryDx=0;entryDy=0;fontSize=16;" edge="1" parent="1" source="lGramcExVLC0_UKyJ60Z-41" target="lGramcExVLC0_UKyJ60Z-42">
          <mxGeometry relative="1" as="geometry" />
        </mxCell>
        <mxCell id="lGramcExVLC0_UKyJ60Z-51" value="C" style="edgeLabel;html=1;align=center;verticalAlign=middle;resizable=0;points=[];fontSize=16;" vertex="1" connectable="0" parent="lGramcExVLC0_UKyJ60Z-50">
          <mxGeometry x="-0.0444" y="-1" relative="1" as="geometry">
            <mxPoint as="offset" />
          </mxGeometry>
        </mxCell>
        <mxCell id="lGramcExVLC0_UKyJ60Z-90" style="edgeStyle=orthogonalEdgeStyle;rounded=0;orthogonalLoop=1;jettySize=auto;html=1;exitX=0.5;exitY=1;exitDx=0;exitDy=0;entryX=0;entryY=0.5;entryDx=0;entryDy=0;fontSize=16;" edge="1" parent="1" source="lGramcExVLC0_UKyJ60Z-41" target="lGramcExVLC0_UKyJ60Z-89">
          <mxGeometry relative="1" as="geometry" />
        </mxCell>
        <mxCell id="lGramcExVLC0_UKyJ60Z-91" style="edgeStyle=orthogonalEdgeStyle;rounded=0;orthogonalLoop=1;jettySize=auto;html=1;exitX=0.5;exitY=1;exitDx=0;exitDy=0;entryX=0;entryY=0.5;entryDx=0;entryDy=0;fontSize=16;" edge="1" parent="1" source="lGramcExVLC0_UKyJ60Z-41" target="lGramcExVLC0_UKyJ60Z-87">
          <mxGeometry relative="1" as="geometry" />
        </mxCell>
        <mxCell id="lGramcExVLC0_UKyJ60Z-92" style="edgeStyle=orthogonalEdgeStyle;rounded=0;orthogonalLoop=1;jettySize=auto;html=1;exitX=0.5;exitY=1;exitDx=0;exitDy=0;entryX=0;entryY=0.5;entryDx=0;entryDy=0;fontSize=16;" edge="1" parent="1" source="lGramcExVLC0_UKyJ60Z-41" target="lGramcExVLC0_UKyJ60Z-88">
          <mxGeometry relative="1" as="geometry" />
        </mxCell>
        <mxCell id="lGramcExVLC0_UKyJ60Z-93" value="A" style="edgeLabel;html=1;align=center;verticalAlign=middle;resizable=0;points=[];fontSize=16;" vertex="1" connectable="0" parent="lGramcExVLC0_UKyJ60Z-92">
          <mxGeometry x="-0.5784" y="1" relative="1" as="geometry">
            <mxPoint as="offset" />
          </mxGeometry>
        </mxCell>
        <mxCell id="lGramcExVLC0_UKyJ60Z-94" value="B" style="edgeLabel;html=1;align=center;verticalAlign=middle;resizable=0;points=[];fontSize=16;" vertex="1" connectable="0" parent="lGramcExVLC0_UKyJ60Z-92">
          <mxGeometry x="0.0703" relative="1" as="geometry">
            <mxPoint as="offset" />
          </mxGeometry>
        </mxCell>
        <mxCell id="lGramcExVLC0_UKyJ60Z-95" value="D" style="edgeLabel;html=1;align=center;verticalAlign=middle;resizable=0;points=[];fontSize=16;" vertex="1" connectable="0" parent="lGramcExVLC0_UKyJ60Z-92">
          <mxGeometry x="0.7081" relative="1" as="geometry">
            <mxPoint as="offset" />
          </mxGeometry>
        </mxCell>
        <mxCell id="lGramcExVLC0_UKyJ60Z-41" value="&lt;font style=&quot;font-size: 16px;&quot;&gt;Q9&lt;/font&gt;" style="ellipse;whiteSpace=wrap;html=1;aspect=fixed;fontSize=16;" vertex="1" parent="1">
          <mxGeometry x="300" y="730" width="50" height="50" as="geometry" />
        </mxCell>
        <mxCell id="lGramcExVLC0_UKyJ60Z-42" value="&lt;font style=&quot;font-size: 16px;&quot;&gt;Q11&lt;/font&gt;" style="ellipse;whiteSpace=wrap;html=1;aspect=fixed;fontSize=16;" vertex="1" parent="1">
          <mxGeometry x="440" y="730" width="50" height="50" as="geometry" />
        </mxCell>
        <mxCell id="lGramcExVLC0_UKyJ60Z-52" value="Q5" style="ellipse;whiteSpace=wrap;html=1;aspect=fixed;fontSize=16;" vertex="1" parent="1">
          <mxGeometry x="90" y="790" width="40" height="40" as="geometry" />
        </mxCell>
        <mxCell id="lGramcExVLC0_UKyJ60Z-53" value="Q5" style="ellipse;whiteSpace=wrap;html=1;aspect=fixed;fontSize=16;" vertex="1" parent="1">
          <mxGeometry x="90" y="850" width="40" height="40" as="geometry" />
        </mxCell>
        <mxCell id="lGramcExVLC0_UKyJ60Z-55" value="" style="endArrow=classic;html=1;rounded=0;exitX=0.5;exitY=1;exitDx=0;exitDy=0;fontSize=16;" edge="1" parent="1">
          <mxGeometry width="50" height="50" relative="1" as="geometry">
            <mxPoint x="65" y="825" as="sourcePoint" />
            <mxPoint x="90" y="810" as="targetPoint" />
            <Array as="points">
              <mxPoint x="65" y="810" />
            </Array>
          </mxGeometry>
        </mxCell>
        <mxCell id="lGramcExVLC0_UKyJ60Z-58" value="A" style="edgeLabel;html=1;align=center;verticalAlign=middle;resizable=0;points=[];fontSize=16;" vertex="1" connectable="0" parent="lGramcExVLC0_UKyJ60Z-55">
          <mxGeometry x="-0.2" y="1" relative="1" as="geometry">
            <mxPoint x="-1" y="1" as="offset" />
          </mxGeometry>
        </mxCell>
        <mxCell id="lGramcExVLC0_UKyJ60Z-60" value="Q5" style="ellipse;whiteSpace=wrap;html=1;aspect=fixed;fontSize=16;" vertex="1" parent="1">
          <mxGeometry x="200" y="440" width="40" height="40" as="geometry" />
        </mxCell>
        <mxCell id="lGramcExVLC0_UKyJ60Z-61" value="Q6" style="ellipse;whiteSpace=wrap;html=1;aspect=fixed;fontSize=16;" vertex="1" parent="1">
          <mxGeometry x="200" y="500" width="40" height="40" as="geometry" />
        </mxCell>
        <mxCell id="lGramcExVLC0_UKyJ60Z-62" value="Q5" style="ellipse;whiteSpace=wrap;html=1;aspect=fixed;fontSize=16;" vertex="1" parent="1">
          <mxGeometry x="200" y="380" width="40" height="40" as="geometry" />
        </mxCell>
        <mxCell id="lGramcExVLC0_UKyJ60Z-72" value="Q5" style="ellipse;whiteSpace=wrap;html=1;aspect=fixed;fontSize=16;" vertex="1" parent="1">
          <mxGeometry x="200" y="860" width="40" height="40" as="geometry" />
        </mxCell>
        <mxCell id="lGramcExVLC0_UKyJ60Z-73" value="Q5" style="ellipse;whiteSpace=wrap;html=1;aspect=fixed;fontSize=16;" vertex="1" parent="1">
          <mxGeometry x="200" y="920" width="40" height="40" as="geometry" />
        </mxCell>
        <mxCell id="lGramcExVLC0_UKyJ60Z-74" value="Q8" style="ellipse;whiteSpace=wrap;html=1;aspect=fixed;fontSize=16;" vertex="1" parent="1">
          <mxGeometry x="200" y="800" width="40" height="40" as="geometry" />
        </mxCell>
        <mxCell id="lGramcExVLC0_UKyJ60Z-84" value="Q6" style="ellipse;whiteSpace=wrap;html=1;aspect=fixed;fontSize=16;" vertex="1" parent="1">
          <mxGeometry x="350" y="440" width="40" height="40" as="geometry" />
        </mxCell>
        <mxCell id="lGramcExVLC0_UKyJ60Z-85" value="Q5" style="ellipse;whiteSpace=wrap;html=1;aspect=fixed;fontSize=16;" vertex="1" parent="1">
          <mxGeometry x="350" y="500" width="40" height="40" as="geometry" />
        </mxCell>
        <mxCell id="lGramcExVLC0_UKyJ60Z-86" value="Q8" style="ellipse;whiteSpace=wrap;html=1;aspect=fixed;fontSize=16;" vertex="1" parent="1">
          <mxGeometry x="350" y="380" width="40" height="40" as="geometry" />
        </mxCell>
        <mxCell id="lGramcExVLC0_UKyJ60Z-87" value="Q6" style="ellipse;whiteSpace=wrap;html=1;aspect=fixed;fontSize=16;" vertex="1" parent="1">
          <mxGeometry x="350" y="860" width="40" height="40" as="geometry" />
        </mxCell>
        <mxCell id="lGramcExVLC0_UKyJ60Z-88" value="Q8" style="ellipse;whiteSpace=wrap;html=1;aspect=fixed;fontSize=16;" vertex="1" parent="1">
          <mxGeometry x="350" y="920" width="40" height="40" as="geometry" />
        </mxCell>
        <mxCell id="lGramcExVLC0_UKyJ60Z-89" value="Q7" style="ellipse;whiteSpace=wrap;html=1;aspect=fixed;fontSize=16;" vertex="1" parent="1">
          <mxGeometry x="350" y="800" width="40" height="40" as="geometry" />
        </mxCell>
        <mxCell id="lGramcExVLC0_UKyJ60Z-144" style="edgeStyle=orthogonalEdgeStyle;rounded=0;orthogonalLoop=1;jettySize=auto;html=1;exitX=1;exitY=0.5;exitDx=0;exitDy=0;entryX=0;entryY=0.5;entryDx=0;entryDy=0;fontSize=16;" edge="1" parent="1" source="lGramcExVLC0_UKyJ60Z-125" target="lGramcExVLC0_UKyJ60Z-128">
          <mxGeometry relative="1" as="geometry" />
        </mxCell>
        <mxCell id="lGramcExVLC0_UKyJ60Z-148" value="C" style="edgeLabel;html=1;align=center;verticalAlign=middle;resizable=0;points=[];fontSize=16;" vertex="1" connectable="0" parent="lGramcExVLC0_UKyJ60Z-144">
          <mxGeometry x="-0.04" y="2" relative="1" as="geometry">
            <mxPoint x="-4" y="2" as="offset" />
          </mxGeometry>
        </mxCell>
        <mxCell id="lGramcExVLC0_UKyJ60Z-155" style="edgeStyle=orthogonalEdgeStyle;rounded=0;orthogonalLoop=1;jettySize=auto;html=1;exitX=0.5;exitY=1;exitDx=0;exitDy=0;entryX=0;entryY=0.5;entryDx=0;entryDy=0;fontSize=16;" edge="1" parent="1" source="lGramcExVLC0_UKyJ60Z-125" target="lGramcExVLC0_UKyJ60Z-154">
          <mxGeometry relative="1" as="geometry" />
        </mxCell>
        <mxCell id="lGramcExVLC0_UKyJ60Z-156" style="edgeStyle=orthogonalEdgeStyle;rounded=0;orthogonalLoop=1;jettySize=auto;html=1;exitX=0.5;exitY=1;exitDx=0;exitDy=0;entryX=0;entryY=0.5;entryDx=0;entryDy=0;fontSize=16;" edge="1" parent="1" source="lGramcExVLC0_UKyJ60Z-125" target="lGramcExVLC0_UKyJ60Z-152">
          <mxGeometry relative="1" as="geometry" />
        </mxCell>
        <mxCell id="lGramcExVLC0_UKyJ60Z-157" style="edgeStyle=orthogonalEdgeStyle;rounded=0;orthogonalLoop=1;jettySize=auto;html=1;exitX=0.5;exitY=1;exitDx=0;exitDy=0;entryX=0;entryY=0.5;entryDx=0;entryDy=0;fontSize=16;" edge="1" parent="1" source="lGramcExVLC0_UKyJ60Z-125" target="lGramcExVLC0_UKyJ60Z-153">
          <mxGeometry relative="1" as="geometry" />
        </mxCell>
        <mxCell id="lGramcExVLC0_UKyJ60Z-158" value="A" style="edgeLabel;html=1;align=center;verticalAlign=middle;resizable=0;points=[];fontSize=16;" vertex="1" connectable="0" parent="lGramcExVLC0_UKyJ60Z-157">
          <mxGeometry x="-0.4146" y="-2" relative="1" as="geometry">
            <mxPoint as="offset" />
          </mxGeometry>
        </mxCell>
        <mxCell id="lGramcExVLC0_UKyJ60Z-159" value="B" style="edgeLabel;html=1;align=center;verticalAlign=middle;resizable=0;points=[];fontSize=16;" vertex="1" connectable="0" parent="lGramcExVLC0_UKyJ60Z-157">
          <mxGeometry x="0.161" relative="1" as="geometry">
            <mxPoint as="offset" />
          </mxGeometry>
        </mxCell>
        <mxCell id="lGramcExVLC0_UKyJ60Z-160" value="D" style="edgeLabel;html=1;align=center;verticalAlign=middle;resizable=0;points=[];fontSize=16;" vertex="1" connectable="0" parent="lGramcExVLC0_UKyJ60Z-157">
          <mxGeometry x="0.7171" relative="1" as="geometry">
            <mxPoint y="4" as="offset" />
          </mxGeometry>
        </mxCell>
        <mxCell id="lGramcExVLC0_UKyJ60Z-125" value="Q10" style="ellipse;whiteSpace=wrap;html=1;aspect=fixed;fontSize=16;" vertex="1" parent="1">
          <mxGeometry x="40" y="1530" width="50" height="50" as="geometry" />
        </mxCell>
        <mxCell id="lGramcExVLC0_UKyJ60Z-126" style="edgeStyle=orthogonalEdgeStyle;rounded=0;orthogonalLoop=1;jettySize=auto;html=1;exitX=1;exitY=0.5;exitDx=0;exitDy=0;entryX=0;entryY=0.5;entryDx=0;entryDy=0;fontSize=16;" edge="1" parent="1" source="lGramcExVLC0_UKyJ60Z-128" target="lGramcExVLC0_UKyJ60Z-134">
          <mxGeometry relative="1" as="geometry">
            <Array as="points">
              <mxPoint x="250" y="1555" />
              <mxPoint x="250" y="1455" />
            </Array>
          </mxGeometry>
        </mxCell>
        <mxCell id="lGramcExVLC0_UKyJ60Z-149" value="B" style="edgeLabel;html=1;align=center;verticalAlign=middle;resizable=0;points=[];fontSize=16;" vertex="1" connectable="0" parent="lGramcExVLC0_UKyJ60Z-126">
          <mxGeometry x="0.6" y="2" relative="1" as="geometry">
            <mxPoint as="offset" />
          </mxGeometry>
        </mxCell>
        <mxCell id="lGramcExVLC0_UKyJ60Z-163" style="edgeStyle=orthogonalEdgeStyle;rounded=0;orthogonalLoop=1;jettySize=auto;html=1;exitX=1;exitY=0.5;exitDx=0;exitDy=0;entryX=0;entryY=0.5;entryDx=0;entryDy=0;fontSize=16;" edge="1" parent="1" source="lGramcExVLC0_UKyJ60Z-128" target="lGramcExVLC0_UKyJ60Z-131">
          <mxGeometry relative="1" as="geometry">
            <Array as="points">
              <mxPoint x="250" y="1555" />
              <mxPoint x="250" y="1655" />
            </Array>
          </mxGeometry>
        </mxCell>
        <mxCell id="lGramcExVLC0_UKyJ60Z-172" value="D" style="edgeLabel;html=1;align=center;verticalAlign=middle;resizable=0;points=[];fontSize=16;" vertex="1" connectable="0" parent="lGramcExVLC0_UKyJ60Z-163">
          <mxGeometry x="0.59" y="-1" relative="1" as="geometry">
            <mxPoint as="offset" />
          </mxGeometry>
        </mxCell>
        <mxCell id="lGramcExVLC0_UKyJ60Z-167" style="edgeStyle=orthogonalEdgeStyle;rounded=0;orthogonalLoop=1;jettySize=auto;html=1;exitX=0.5;exitY=1;exitDx=0;exitDy=0;entryX=0;entryY=0.5;entryDx=0;entryDy=0;fontSize=16;" edge="1" parent="1" source="lGramcExVLC0_UKyJ60Z-128" target="lGramcExVLC0_UKyJ60Z-166">
          <mxGeometry relative="1" as="geometry" />
        </mxCell>
        <mxCell id="lGramcExVLC0_UKyJ60Z-170" style="edgeStyle=orthogonalEdgeStyle;rounded=0;orthogonalLoop=1;jettySize=auto;html=1;exitX=0.5;exitY=1;exitDx=0;exitDy=0;entryX=0;entryY=0.5;entryDx=0;entryDy=0;fontSize=16;" edge="1" parent="1" source="lGramcExVLC0_UKyJ60Z-128" target="lGramcExVLC0_UKyJ60Z-164">
          <mxGeometry relative="1" as="geometry" />
        </mxCell>
        <mxCell id="lGramcExVLC0_UKyJ60Z-173" value="A" style="edgeLabel;html=1;align=center;verticalAlign=middle;resizable=0;points=[];fontSize=16;" vertex="1" connectable="0" parent="lGramcExVLC0_UKyJ60Z-170">
          <mxGeometry x="-0.36" relative="1" as="geometry">
            <mxPoint as="offset" />
          </mxGeometry>
        </mxCell>
        <mxCell id="lGramcExVLC0_UKyJ60Z-174" value="C" style="edgeLabel;html=1;align=center;verticalAlign=middle;resizable=0;points=[];fontSize=16;" vertex="1" connectable="0" parent="lGramcExVLC0_UKyJ60Z-170">
          <mxGeometry x="0.536" relative="1" as="geometry">
            <mxPoint as="offset" />
          </mxGeometry>
        </mxCell>
        <mxCell id="lGramcExVLC0_UKyJ60Z-128" value="&lt;font style=&quot;font-size: 16px;&quot;&gt;Q11&lt;/font&gt;" style="ellipse;whiteSpace=wrap;html=1;aspect=fixed;fontSize=16;" vertex="1" parent="1">
          <mxGeometry x="140" y="1530" width="50" height="50" as="geometry" />
        </mxCell>
        <mxCell id="lGramcExVLC0_UKyJ60Z-129" style="edgeStyle=orthogonalEdgeStyle;rounded=0;orthogonalLoop=1;jettySize=auto;html=1;exitX=1;exitY=0.5;exitDx=0;exitDy=0;entryX=0;entryY=0.5;entryDx=0;entryDy=0;fontSize=16;" edge="1" parent="1" source="lGramcExVLC0_UKyJ60Z-131" target="lGramcExVLC0_UKyJ60Z-138">
          <mxGeometry relative="1" as="geometry" />
        </mxCell>
        <mxCell id="lGramcExVLC0_UKyJ60Z-142" value="D" style="edgeLabel;html=1;align=center;verticalAlign=middle;resizable=0;points=[];fontSize=16;" vertex="1" connectable="0" parent="lGramcExVLC0_UKyJ60Z-129">
          <mxGeometry x="-0.1" y="-2" relative="1" as="geometry">
            <mxPoint as="offset" />
          </mxGeometry>
        </mxCell>
        <mxCell id="lGramcExVLC0_UKyJ60Z-199" style="edgeStyle=orthogonalEdgeStyle;rounded=0;orthogonalLoop=1;jettySize=auto;html=1;exitX=0.5;exitY=1;exitDx=0;exitDy=0;entryX=0;entryY=0.5;entryDx=0;entryDy=0;fontSize=16;" edge="1" parent="1" source="lGramcExVLC0_UKyJ60Z-131" target="lGramcExVLC0_UKyJ60Z-198">
          <mxGeometry relative="1" as="geometry" />
        </mxCell>
        <mxCell id="lGramcExVLC0_UKyJ60Z-200" style="edgeStyle=orthogonalEdgeStyle;rounded=0;orthogonalLoop=1;jettySize=auto;html=1;exitX=0.5;exitY=1;exitDx=0;exitDy=0;entryX=0;entryY=0.5;entryDx=0;entryDy=0;fontSize=16;" edge="1" parent="1" source="lGramcExVLC0_UKyJ60Z-131" target="lGramcExVLC0_UKyJ60Z-196">
          <mxGeometry relative="1" as="geometry" />
        </mxCell>
        <mxCell id="lGramcExVLC0_UKyJ60Z-201" style="edgeStyle=orthogonalEdgeStyle;rounded=0;orthogonalLoop=1;jettySize=auto;html=1;exitX=0.5;exitY=1;exitDx=0;exitDy=0;entryX=0;entryY=0.5;entryDx=0;entryDy=0;fontSize=16;" edge="1" parent="1" source="lGramcExVLC0_UKyJ60Z-131" target="lGramcExVLC0_UKyJ60Z-197">
          <mxGeometry relative="1" as="geometry" />
        </mxCell>
        <mxCell id="lGramcExVLC0_UKyJ60Z-203" value="B" style="edgeLabel;html=1;align=center;verticalAlign=middle;resizable=0;points=[];fontSize=16;" vertex="1" connectable="0" parent="lGramcExVLC0_UKyJ60Z-201">
          <mxGeometry x="0.0486" y="-1" relative="1" as="geometry">
            <mxPoint as="offset" />
          </mxGeometry>
        </mxCell>
        <mxCell id="lGramcExVLC0_UKyJ60Z-204" value="C" style="edgeLabel;html=1;align=center;verticalAlign=middle;resizable=0;points=[];fontSize=16;" vertex="1" connectable="0" parent="lGramcExVLC0_UKyJ60Z-201">
          <mxGeometry x="0.7297" y="-1" relative="1" as="geometry">
            <mxPoint x="-1" y="-1" as="offset" />
          </mxGeometry>
        </mxCell>
        <mxCell id="lGramcExVLC0_UKyJ60Z-205" value="A" style="edgeLabel;html=1;align=center;verticalAlign=middle;resizable=0;points=[];fontSize=16;" vertex="1" connectable="0" parent="lGramcExVLC0_UKyJ60Z-201">
          <mxGeometry x="-0.5784" y="-1" relative="1" as="geometry">
            <mxPoint as="offset" />
          </mxGeometry>
        </mxCell>
        <mxCell id="lGramcExVLC0_UKyJ60Z-131" value="Q13" style="ellipse;whiteSpace=wrap;html=1;aspect=fixed;fontSize=16;" vertex="1" parent="1">
          <mxGeometry x="290" y="1630" width="50" height="50" as="geometry" />
        </mxCell>
        <mxCell id="lGramcExVLC0_UKyJ60Z-147" style="edgeStyle=orthogonalEdgeStyle;rounded=0;orthogonalLoop=1;jettySize=auto;html=1;exitX=1;exitY=0.5;exitDx=0;exitDy=0;entryX=0;entryY=0.5;entryDx=0;entryDy=0;fontSize=16;" edge="1" parent="1" source="lGramcExVLC0_UKyJ60Z-134" target="lGramcExVLC0_UKyJ60Z-146">
          <mxGeometry relative="1" as="geometry" />
        </mxCell>
        <mxCell id="lGramcExVLC0_UKyJ60Z-151" value="A" style="edgeLabel;html=1;align=center;verticalAlign=middle;resizable=0;points=[];fontSize=16;" vertex="1" connectable="0" parent="lGramcExVLC0_UKyJ60Z-147">
          <mxGeometry x="-0.0886" y="-1" relative="1" as="geometry">
            <mxPoint as="offset" />
          </mxGeometry>
        </mxCell>
        <mxCell id="lGramcExVLC0_UKyJ60Z-178" style="edgeStyle=orthogonalEdgeStyle;rounded=0;orthogonalLoop=1;jettySize=auto;html=1;exitX=0.5;exitY=0;exitDx=0;exitDy=0;entryX=0;entryY=0.5;entryDx=0;entryDy=0;fontSize=16;" edge="1" parent="1" source="lGramcExVLC0_UKyJ60Z-134" target="lGramcExVLC0_UKyJ60Z-176">
          <mxGeometry relative="1" as="geometry" />
        </mxCell>
        <mxCell id="lGramcExVLC0_UKyJ60Z-179" style="edgeStyle=orthogonalEdgeStyle;rounded=0;orthogonalLoop=1;jettySize=auto;html=1;exitX=0.5;exitY=0;exitDx=0;exitDy=0;entryX=0;entryY=0.5;entryDx=0;entryDy=0;fontSize=16;" edge="1" parent="1" source="lGramcExVLC0_UKyJ60Z-134" target="lGramcExVLC0_UKyJ60Z-175">
          <mxGeometry relative="1" as="geometry" />
        </mxCell>
        <mxCell id="lGramcExVLC0_UKyJ60Z-180" style="edgeStyle=orthogonalEdgeStyle;rounded=0;orthogonalLoop=1;jettySize=auto;html=1;exitX=0.5;exitY=0;exitDx=0;exitDy=0;entryX=0;entryY=0.5;entryDx=0;entryDy=0;fontSize=16;" edge="1" parent="1" source="lGramcExVLC0_UKyJ60Z-134" target="lGramcExVLC0_UKyJ60Z-177">
          <mxGeometry relative="1" as="geometry" />
        </mxCell>
        <mxCell id="lGramcExVLC0_UKyJ60Z-181" value="B" style="edgeLabel;html=1;align=center;verticalAlign=middle;resizable=0;points=[];fontSize=16;" vertex="1" connectable="0" parent="lGramcExVLC0_UKyJ60Z-180">
          <mxGeometry x="-0.4667" relative="1" as="geometry">
            <mxPoint as="offset" />
          </mxGeometry>
        </mxCell>
        <mxCell id="lGramcExVLC0_UKyJ60Z-182" value="C" style="edgeLabel;html=1;align=center;verticalAlign=middle;resizable=0;points=[];fontSize=16;" vertex="1" connectable="0" parent="lGramcExVLC0_UKyJ60Z-180">
          <mxGeometry x="0.1385" y="1" relative="1" as="geometry">
            <mxPoint as="offset" />
          </mxGeometry>
        </mxCell>
        <mxCell id="lGramcExVLC0_UKyJ60Z-183" value="D" style="edgeLabel;html=1;align=center;verticalAlign=middle;resizable=0;points=[];fontSize=16;" vertex="1" connectable="0" parent="lGramcExVLC0_UKyJ60Z-180">
          <mxGeometry x="0.7436" y="4" relative="1" as="geometry">
            <mxPoint x="-3" y="4" as="offset" />
          </mxGeometry>
        </mxCell>
        <mxCell id="lGramcExVLC0_UKyJ60Z-134" value="&lt;font style=&quot;font-size: 16px;&quot;&gt;Q12&lt;/font&gt;" style="ellipse;whiteSpace=wrap;html=1;aspect=fixed;fontSize=16;" vertex="1" parent="1">
          <mxGeometry x="290" y="1430" width="50" height="50" as="geometry" />
        </mxCell>
        <mxCell id="lGramcExVLC0_UKyJ60Z-213" style="edgeStyle=orthogonalEdgeStyle;rounded=0;orthogonalLoop=1;jettySize=auto;html=1;exitX=0.5;exitY=1;exitDx=0;exitDy=0;entryX=0;entryY=0.5;entryDx=0;entryDy=0;fontSize=16;" edge="1" parent="1" source="lGramcExVLC0_UKyJ60Z-138" target="lGramcExVLC0_UKyJ60Z-211">
          <mxGeometry relative="1" as="geometry" />
        </mxCell>
        <mxCell id="lGramcExVLC0_UKyJ60Z-214" style="edgeStyle=orthogonalEdgeStyle;rounded=0;orthogonalLoop=1;jettySize=auto;html=1;exitX=0.5;exitY=1;exitDx=0;exitDy=0;entryX=0;entryY=0.5;entryDx=0;entryDy=0;fontSize=16;" edge="1" parent="1" source="lGramcExVLC0_UKyJ60Z-138" target="lGramcExVLC0_UKyJ60Z-209">
          <mxGeometry relative="1" as="geometry" />
        </mxCell>
        <mxCell id="lGramcExVLC0_UKyJ60Z-215" style="edgeStyle=orthogonalEdgeStyle;rounded=0;orthogonalLoop=1;jettySize=auto;html=1;exitX=0.5;exitY=1;exitDx=0;exitDy=0;entryX=0;entryY=0.5;entryDx=0;entryDy=0;fontSize=16;" edge="1" parent="1" source="lGramcExVLC0_UKyJ60Z-138" target="lGramcExVLC0_UKyJ60Z-210">
          <mxGeometry relative="1" as="geometry" />
        </mxCell>
        <mxCell id="lGramcExVLC0_UKyJ60Z-216" style="edgeStyle=orthogonalEdgeStyle;rounded=0;orthogonalLoop=1;jettySize=auto;html=1;exitX=0.5;exitY=1;exitDx=0;exitDy=0;entryX=0;entryY=0.5;entryDx=0;entryDy=0;fontSize=16;" edge="1" parent="1" source="lGramcExVLC0_UKyJ60Z-138" target="lGramcExVLC0_UKyJ60Z-212">
          <mxGeometry relative="1" as="geometry" />
        </mxCell>
        <mxCell id="lGramcExVLC0_UKyJ60Z-217" value="A" style="edgeLabel;html=1;align=center;verticalAlign=middle;resizable=0;points=[];fontSize=16;" vertex="1" connectable="0" parent="lGramcExVLC0_UKyJ60Z-216">
          <mxGeometry x="-0.6763" y="1" relative="1" as="geometry">
            <mxPoint as="offset" />
          </mxGeometry>
        </mxCell>
        <mxCell id="lGramcExVLC0_UKyJ60Z-218" value="B" style="edgeLabel;html=1;align=center;verticalAlign=middle;resizable=0;points=[];fontSize=16;" vertex="1" connectable="0" parent="lGramcExVLC0_UKyJ60Z-216">
          <mxGeometry x="-0.195" relative="1" as="geometry">
            <mxPoint as="offset" />
          </mxGeometry>
        </mxCell>
        <mxCell id="lGramcExVLC0_UKyJ60Z-219" value="C" style="edgeLabel;html=1;align=center;verticalAlign=middle;resizable=0;points=[];fontSize=16;" vertex="1" connectable="0" parent="lGramcExVLC0_UKyJ60Z-216">
          <mxGeometry x="0.3195" relative="1" as="geometry">
            <mxPoint as="offset" />
          </mxGeometry>
        </mxCell>
        <mxCell id="lGramcExVLC0_UKyJ60Z-220" value="D" style="edgeLabel;html=1;align=center;verticalAlign=middle;resizable=0;points=[];fontSize=16;" vertex="1" connectable="0" parent="lGramcExVLC0_UKyJ60Z-216">
          <mxGeometry x="0.8257" y="-1" relative="1" as="geometry">
            <mxPoint x="-1" y="-1" as="offset" />
          </mxGeometry>
        </mxCell>
        <mxCell id="lGramcExVLC0_UKyJ60Z-138" value="&lt;font style=&quot;font-size: 16px;&quot;&gt;Q14&lt;/font&gt;" style="ellipse;whiteSpace=wrap;html=1;aspect=fixed;fontSize=16;gradientColor=none;strokeWidth=4;" vertex="1" parent="1">
          <mxGeometry x="420" y="1630" width="50" height="50" as="geometry" />
        </mxCell>
        <mxCell id="lGramcExVLC0_UKyJ60Z-146" value="&lt;font style=&quot;font-size: 16px;&quot;&gt;Q14&lt;/font&gt;" style="ellipse;whiteSpace=wrap;html=1;aspect=fixed;fontSize=16;" vertex="1" parent="1">
          <mxGeometry x="419" y="1430" width="50" height="50" as="geometry" />
        </mxCell>
        <mxCell id="lGramcExVLC0_UKyJ60Z-152" value="Q10" style="ellipse;whiteSpace=wrap;html=1;aspect=fixed;fontSize=16;" vertex="1" parent="1">
          <mxGeometry x="90" y="1660" width="40" height="40" as="geometry" />
        </mxCell>
        <mxCell id="lGramcExVLC0_UKyJ60Z-153" value="Q10" style="ellipse;whiteSpace=wrap;html=1;aspect=fixed;fontSize=16;" vertex="1" parent="1">
          <mxGeometry x="90" y="1720" width="40" height="40" as="geometry" />
        </mxCell>
        <mxCell id="lGramcExVLC0_UKyJ60Z-154" value="Q10" style="ellipse;whiteSpace=wrap;html=1;aspect=fixed;fontSize=16;" vertex="1" parent="1">
          <mxGeometry x="90" y="1600" width="40" height="40" as="geometry" />
        </mxCell>
        <mxCell id="lGramcExVLC0_UKyJ60Z-164" value="Q11" style="ellipse;whiteSpace=wrap;html=1;aspect=fixed;fontSize=16;" vertex="1" parent="1">
          <mxGeometry x="190" y="1660" width="40" height="40" as="geometry" />
        </mxCell>
        <mxCell id="lGramcExVLC0_UKyJ60Z-166" value="Q10" style="ellipse;whiteSpace=wrap;html=1;aspect=fixed;fontSize=16;" vertex="1" parent="1">
          <mxGeometry x="190" y="1600" width="40" height="40" as="geometry" />
        </mxCell>
        <mxCell id="lGramcExVLC0_UKyJ60Z-175" value="Q11" style="ellipse;whiteSpace=wrap;html=1;aspect=fixed;fontSize=16;" vertex="1" parent="1">
          <mxGeometry x="340" y="1300" width="40" height="40" as="geometry" />
        </mxCell>
        <mxCell id="lGramcExVLC0_UKyJ60Z-176" value="Q10" style="ellipse;whiteSpace=wrap;html=1;aspect=fixed;fontSize=16;" vertex="1" parent="1">
          <mxGeometry x="340" y="1360" width="40" height="40" as="geometry" />
        </mxCell>
        <mxCell id="lGramcExVLC0_UKyJ60Z-177" value="Q10" style="ellipse;whiteSpace=wrap;html=1;aspect=fixed;fontSize=16;" vertex="1" parent="1">
          <mxGeometry x="340" y="1240" width="40" height="40" as="geometry" />
        </mxCell>
        <mxCell id="lGramcExVLC0_UKyJ60Z-196" value="Q10" style="ellipse;whiteSpace=wrap;html=1;aspect=fixed;fontSize=16;" vertex="1" parent="1">
          <mxGeometry x="340" y="1760" width="40" height="40" as="geometry" />
        </mxCell>
        <mxCell id="lGramcExVLC0_UKyJ60Z-197" value="Q11" style="ellipse;whiteSpace=wrap;html=1;aspect=fixed;fontSize=16;" vertex="1" parent="1">
          <mxGeometry x="340" y="1820" width="40" height="40" as="geometry" />
        </mxCell>
        <mxCell id="lGramcExVLC0_UKyJ60Z-198" value="Q10" style="ellipse;whiteSpace=wrap;html=1;aspect=fixed;fontSize=16;" vertex="1" parent="1">
          <mxGeometry x="340" y="1700" width="40" height="40" as="geometry" />
        </mxCell>
        <mxCell id="lGramcExVLC0_UKyJ60Z-209" value="Q10" style="ellipse;whiteSpace=wrap;html=1;aspect=fixed;fontSize=16;" vertex="1" parent="1">
          <mxGeometry x="466" y="1760" width="40" height="40" as="geometry" />
        </mxCell>
        <mxCell id="lGramcExVLC0_UKyJ60Z-210" value="Q11" style="ellipse;whiteSpace=wrap;html=1;aspect=fixed;fontSize=16;" vertex="1" parent="1">
          <mxGeometry x="466" y="1820" width="40" height="40" as="geometry" />
        </mxCell>
        <mxCell id="lGramcExVLC0_UKyJ60Z-211" value="Q10" style="ellipse;whiteSpace=wrap;html=1;aspect=fixed;fontSize=16;" vertex="1" parent="1">
          <mxGeometry x="466" y="1700" width="40" height="40" as="geometry" />
        </mxCell>
        <mxCell id="lGramcExVLC0_UKyJ60Z-212" value="Q10" style="ellipse;whiteSpace=wrap;html=1;aspect=fixed;fontSize=16;" vertex="1" parent="1">
          <mxGeometry x="466" y="1880" width="40" height="40" as="geometry" />
        </mxCell>
      </root>
    </mxGraphModel>
  </diagram>
</mxfile>
